<svg width="60" height="60" viewBox="0 0 60 60" fill="none" xmlns="http://www.w3.org/2000/svg">
<g clip-path="url(#clip0_2_33)">
<rect width="60" height="60" rx="8" fill="white" fill-opacity="0.5"/>
<g clip-path="url(#clip1_2_33)">
<path d="M25 30C25 30.3315 25.1317 30.6495 25.3661 30.8839C25.6005 31.1183 25.9185 31.25 26.25 31.25C26.5815 31.25 26.8995 31.1183 27.1339 30.8839C27.3683 30.6495 27.5 30.3315 27.5 30C27.5 29.6685 27.3683 29.3505 27.1339 29.1161C26.8995 28.8817 26.5815 28.75 26.25 28.75C25.9185 28.75 25.6005 28.8817 25.3661 29.1161C25.1317 29.3505 25 29.6685 25 30Z" stroke="black" stroke-width="2.75" stroke-linecap="round" stroke-linejoin="round"/>
<path d="M32.5 30C32.5 30.3315 32.6317 30.6495 32.8661 30.8839C33.1005 31.1183 33.4185 31.25 33.75 31.25C34.0815 31.25 34.3995 31.1183 34.6339 30.8839C34.8683 30.6495 35 30.3315 35 30C35 29.6685 34.8683 29.3505 34.6339 29.1161C34.3995 28.8817 34.0815 28.75 33.75 28.75C33.4185 28.75 33.1005 28.8817 32.8661 29.1161C32.6317 29.3505 32.5 29.6685 32.5 30Z" stroke="black" stroke-width="2.75" stroke-linecap="round" stroke-linejoin="round"/>
<path d="M34.375 36.25C34.375 37.5 36.25 40 36.875 40C38.75 40 40.4162 37.9163 41.25 36.25C42.0837 34.1663 41.875 28.9588 39.375 21.875C37.5537 20.6063 35.625 20.2 33.75 20L32.535 22.4038C30.8586 22.1144 29.1451 22.1144 27.4687 22.4038L26.25 20C24.375 20.2 22.4462 20.6063 20.625 21.875C18.125 28.9588 17.9162 34.1663 18.75 36.25C19.5837 37.9163 21.25 40 23.125 40C23.75 40 25.625 37.5 25.625 36.25" stroke="black" stroke-width="2.75" stroke-linecap="round" stroke-linejoin="round"/>
<path d="M23.75 35.625C28.125 36.875 31.875 36.875 36.25 35.625" stroke="black" stroke-width="2.75" stroke-linecap="round" stroke-linejoin="round"/>
</g>
</g>
<defs>
<clipPath id="clip0_2_33">
<rect width="60" height="60" fill="white"/>
</clipPath>
<clipPath id="clip1_2_33">
<rect width="30" height="30" fill="white" transform="translate(15 15)"/>
</clipPath>
</defs>
</svg>
