<svg width="60" height="60" viewBox="0 0 60 60" fill="none" xmlns="http://www.w3.org/2000/svg">
<g clip-path="url(#clip0_2_80)">
<rect width="60" height="60" rx="8" fill="white" fill-opacity="0.5"/>
<g clip-path="url(#clip1_2_80)">
<path d="M13.5 46.5L16.525 39.5333C14.2107 36.2481 13.1749 32.2312 13.6119 28.2365C14.0489 24.2418 15.9288 20.5439 18.8986 17.8368C21.8685 15.1297 25.7242 13.5994 29.7422 13.5332C33.7602 13.467 37.6642 14.8694 40.7217 17.4772C43.7791 20.085 45.7798 23.719 46.3482 27.6971C46.9166 31.6752 46.0136 35.7241 43.8089 39.0838C41.6041 42.4434 38.249 44.883 34.3732 45.9447C30.4975 47.0064 26.3675 46.6171 22.7583 44.85L13.5 46.5Z" stroke="black" stroke-width="2.75" stroke-linecap="round" stroke-linejoin="round"/>
<path d="M24.5 26.3333C24.5 26.5765 24.5966 26.8096 24.7685 26.9815C24.9404 27.1534 25.1736 27.25 25.4167 27.25C25.6598 27.25 25.8929 27.1534 26.0648 26.9815C26.2368 26.8096 26.3333 26.5765 26.3333 26.3333V24.5C26.3333 24.2569 26.2368 24.0237 26.0648 23.8518C25.8929 23.6799 25.6598 23.5833 25.4167 23.5833C25.1736 23.5833 24.9404 23.6799 24.7685 23.8518C24.5966 24.0237 24.5 24.2569 24.5 24.5V26.3333ZM24.5 26.3333C24.5 28.7645 25.4658 31.0961 27.1849 32.8152C28.9039 34.5342 31.2355 35.5 33.6667 35.5M33.6667 35.5H35.5C35.7431 35.5 35.9763 35.4034 36.1482 35.2315C36.3201 35.0596 36.4167 34.8265 36.4167 34.5833C36.4167 34.3402 36.3201 34.1071 36.1482 33.9352C35.9763 33.7633 35.7431 33.6667 35.5 33.6667H33.6667C33.4236 33.6667 33.1904 33.7633 33.0185 33.9352C32.8466 34.1071 32.75 34.3402 32.75 34.5833C32.75 34.8265 32.8466 35.0596 33.0185 35.2315C33.1904 35.4034 33.4236 35.5 33.6667 35.5Z" stroke="black" stroke-width="2.75" stroke-linecap="round" stroke-linejoin="round"/>
</g>
</g>
<defs>
<clipPath id="clip0_2_80">
<rect width="60" height="60" fill="white"/>
</clipPath>
<clipPath id="clip1_2_80">
<rect width="44" height="44" fill="white" transform="translate(8 8)"/>
</clipPath>
</defs>
</svg>
